<svg width="165" height="28" viewBox="0 0 165 28" fill="none" xmlns="http://www.w3.org/2000/svg">
<path d="M10.052 27.432C8.66 27.432 7.22 27.204 5.732 26.748C4.484 27.06 3.392 27.216 2.456 27.216C1.544 27.216 0.92 27.192 0.584 27.144C0.752 25.728 1.472 22.14 2.744 16.38C4.04 10.596 4.688 7.32 4.688 6.552C4.688 5.76 4.52 5.076 4.184 4.5C3.872 3.924 3.56 3.504 3.248 3.24L2.744 2.844L2.852 2.304C3.476 2.136 4.748 1.956 6.668 1.764C8.612 1.548 10.304 1.44 11.744 1.44C15.08 1.44 17.6 2.184 19.304 3.672C21.032 5.136 21.896 7.524 21.896 10.836C21.896 13.548 21.44 16.152 20.528 18.648C19.64 21.12 18.272 23.208 16.424 24.912C14.576 26.592 12.452 27.432 10.052 27.432ZM12.608 3.708C11.984 3.708 11.276 3.78 10.484 3.924C10.244 6.468 9.56 10.188 8.432 15.084C7.328 19.956 6.68 23.064 6.488 24.408C7.064 24.696 7.856 24.84 8.864 24.84C9.872 24.84 10.82 24.444 11.708 23.652C12.62 22.836 13.352 21.828 13.904 20.628C14.456 19.428 14.936 18.084 15.344 16.596C16.04 13.932 16.388 11.508 16.388 9.324C16.388 7.14 16.1 5.664 15.524 4.896C14.948 4.104 13.976 3.708 12.608 3.708ZM22.9985 20.772C22.9985 17.772 23.8985 15.408 25.6985 13.68C27.5225 11.928 29.5865 11.052 31.8905 11.052C33.3065 11.052 34.4705 11.4 35.3825 12.096C36.2945 12.792 36.7505 13.728 36.7505 14.904C36.7505 16.056 36.4505 17.028 35.8505 17.82C35.2745 18.612 34.5665 19.224 33.7265 19.656C32.0225 20.496 30.4625 21.024 29.0465 21.24L28.1825 21.348C28.3505 23.604 29.2745 24.732 30.9545 24.732C31.5305 24.732 32.1425 24.588 32.7905 24.3C33.4385 24.012 33.9425 23.724 34.3025 23.436L34.8425 23.004L35.7065 24.156C35.5145 24.42 35.1305 24.768 34.5545 25.2C33.9785 25.632 33.4385 25.992 32.9345 26.28C31.5425 27.048 30.0185 27.432 28.3625 27.432C26.7065 27.432 25.3985 26.844 24.4385 25.668C23.4785 24.492 22.9985 22.86 22.9985 20.772ZM28.1465 19.584C29.3705 19.368 30.3425 18.852 31.0625 18.036C31.7825 17.22 32.1425 16.164 32.1425 14.868C32.1425 13.572 31.7585 12.924 30.9905 12.924C30.0785 12.924 29.3705 13.704 28.8665 15.264C28.3865 16.8 28.1465 18.24 28.1465 19.584ZM37.3774 20.772C37.3774 17.772 38.2774 15.408 40.0774 13.68C41.9014 11.928 43.9654 11.052 46.2694 11.052C47.6854 11.052 48.8494 11.4 49.7614 12.096C50.6734 12.792 51.1294 13.728 51.1294 14.904C51.1294 16.056 50.8294 17.028 50.2294 17.82C49.6534 18.612 48.9454 19.224 48.1054 19.656C46.4014 20.496 44.8414 21.024 43.4254 21.24L42.5614 21.348C42.7294 23.604 43.6534 24.732 45.3334 24.732C45.9094 24.732 46.5214 24.588 47.1694 24.3C47.8174 24.012 48.3214 23.724 48.6814 23.436L49.2214 23.004L50.0854 24.156C49.8934 24.42 49.5094 24.768 48.9334 25.2C48.3574 25.632 47.8174 25.992 47.3134 26.28C45.9214 27.048 44.3974 27.432 42.7414 27.432C41.0854 27.432 39.7774 26.844 38.8174 25.668C37.8574 24.492 37.3774 22.86 37.3774 20.772ZM42.5254 19.584C43.7494 19.368 44.7214 18.852 45.4414 18.036C46.1614 17.22 46.5214 16.164 46.5214 14.868C46.5214 13.572 46.1374 12.924 45.3694 12.924C44.4574 12.924 43.7494 13.704 43.2454 15.264C42.7654 16.8 42.5254 18.24 42.5254 19.584ZM59.5683 3.852C59.5683 6.06 58.2483 8.664 55.6083 11.664L53.9163 10.62C55.1643 8.7 55.8603 7.236 56.0043 6.228L53.8803 4.932C53.8803 4.092 54.0723 3.264 54.4563 2.448C54.8643 1.632 55.2723 0.995999 55.6803 0.539999C57.0243 0.539999 58.0923 0.899999 58.8843 1.62C59.3403 2.028 59.5683 2.772 59.5683 3.852ZM71.7782 22.284C71.7782 23.796 71.1062 25.032 69.7622 25.992C68.4422 26.952 66.9302 27.432 65.2262 27.432C63.5222 27.432 62.1662 27.072 61.1582 26.352C60.1742 25.632 59.6822 24.996 59.6822 24.444C59.6822 24.108 60.1022 23.568 60.9422 22.824C61.7822 22.056 62.4902 21.588 63.0662 21.42C64.2662 22.308 65.2502 23.712 66.0182 25.632C66.9062 25.56 67.3502 25.14 67.3502 24.372C67.3502 23.268 66.3782 21.708 64.4342 19.692C62.4902 17.652 61.5182 16.032 61.5182 14.832C61.5182 13.632 62.0582 12.708 63.1382 12.06C64.2182 11.388 65.5142 11.052 67.0262 11.052C68.5622 11.052 69.7142 11.328 70.4822 11.88C71.2502 12.408 71.6342 13.14 71.6342 14.076C71.6342 14.988 70.9022 16.26 69.4382 17.892C69.6062 18.06 69.8222 18.288 70.0862 18.576C70.3502 18.84 70.6982 19.356 71.1302 20.124C71.5622 20.892 71.7782 21.612 71.7782 22.284ZM68.3222 16.632C69.3302 15.768 69.8342 14.916 69.8342 14.076C69.8342 13.236 69.2582 12.816 68.1062 12.816C67.5542 12.816 67.0982 12.936 66.7382 13.176C66.3782 13.392 66.1982 13.644 66.1982 13.932C66.1982 14.46 66.7262 15.204 67.7822 16.164L68.3222 16.632ZM88.5421 27.432C86.8621 27.432 85.2541 26.952 83.7181 25.992C82.9501 25.512 82.3141 24.84 81.8101 23.976C81.3301 23.112 81.0901 22.116 81.0901 20.988C81.0901 18.852 81.7981 17.112 83.2141 15.768C84.6301 14.424 86.3341 13.644 88.3261 13.428C86.9821 13.068 85.9021 12.444 85.0861 11.556C84.2941 10.668 83.8981 9.54 83.8981 8.172C83.8981 6.108 84.7021 4.476 86.3101 3.276C87.9421 2.052 89.8021 1.44 91.8901 1.44C93.9781 1.44 95.7181 1.884 97.1101 2.772C98.5021 3.66 99.1981 4.86 99.1981 6.372C99.1981 6.9 99.1021 7.416 98.9101 7.92C98.7421 8.424 98.5621 8.784 98.3701 9L98.1181 9.36C97.3501 9.36 96.4981 9.228 95.5621 8.964C94.6501 8.7 93.9781 8.364 93.5461 7.956L93.9781 4.248C93.6181 3.888 93.0061 3.708 92.1421 3.708C91.3021 3.708 90.6301 4.152 90.1261 5.04C89.6461 5.904 89.4061 6.9 89.4061 8.028C89.4061 9.156 89.5381 10.008 89.8021 10.584C90.0661 11.16 90.4381 11.604 90.9181 11.916C91.6621 12.396 92.5381 12.732 93.5461 12.924L93.2581 14.904C91.5301 14.904 90.0301 15.42 88.7581 16.452C87.4861 17.46 86.8501 18.804 86.8501 20.484C86.8501 21.54 87.1861 22.416 87.8581 23.112C88.5541 23.784 89.4421 24.12 90.5221 24.12C92.4901 24.12 94.5061 23.124 96.5701 21.132L98.0101 22.464C95.2261 25.776 92.0701 27.432 88.5421 27.432ZM110.309 22.284C110.309 23.796 109.637 25.032 108.293 25.992C106.973 26.952 105.461 27.432 103.757 27.432C102.053 27.432 100.697 27.072 99.6895 26.352C98.7055 25.632 98.2135 24.996 98.2135 24.444C98.2135 24.108 98.6335 23.568 99.4735 22.824C100.313 22.056 101.021 21.588 101.597 21.42C102.797 22.308 103.781 23.712 104.549 25.632C105.437 25.56 105.881 25.14 105.881 24.372C105.881 23.268 104.909 21.708 102.965 19.692C101.021 17.652 100.049 16.032 100.049 14.832C100.049 13.632 100.589 12.708 101.669 12.06C102.749 11.388 104.045 11.052 105.557 11.052C107.093 11.052 108.245 11.328 109.013 11.88C109.781 12.408 110.165 13.14 110.165 14.076C110.165 14.988 109.433 16.26 107.969 17.892C108.137 18.06 108.353 18.288 108.617 18.576C108.881 18.84 109.229 19.356 109.661 20.124C110.093 20.892 110.309 21.612 110.309 22.284ZM106.853 16.632C107.861 15.768 108.365 14.916 108.365 14.076C108.365 13.236 107.789 12.816 106.637 12.816C106.085 12.816 105.629 12.936 105.269 13.176C104.909 13.392 104.729 13.644 104.729 13.932C104.729 14.46 105.257 15.204 106.313 16.164L106.853 16.632ZM123.25 11.484C123.202 12.084 122.998 12.78 122.638 13.572C121.726 13.476 120.862 13.428 120.046 13.428H119.398C118.294 18.78 117.742 22.116 117.742 23.436C117.742 24.132 117.886 24.48 118.174 24.48C118.486 24.48 119.29 24.18 120.586 23.58L121.234 24.768C119.098 26.544 117.118 27.432 115.294 27.432C114.454 27.432 113.758 27.168 113.206 26.64C112.678 26.112 112.414 25.416 112.414 24.552C112.414 23.664 112.51 22.668 112.702 21.564C112.918 20.46 113.206 19.116 113.566 17.532C113.926 15.924 114.19 14.628 114.358 13.644C113.47 13.716 112.81 13.788 112.378 13.86C112.33 13.572 112.306 13.188 112.306 12.708C112.306 12.204 112.342 11.796 112.414 11.484H114.682C114.874 10.188 114.97 8.964 114.97 7.812L114.934 6.696V6.588C116.806 5.94 118.57 5.616 120.226 5.616C120.322 6.096 120.37 6.696 120.37 7.416C120.37 8.136 120.166 9.492 119.758 11.484H123.25ZM133.328 12.096C133.376 12.048 133.508 11.736 133.724 11.16C134.852 11.16 136.364 11.496 138.26 12.168C137.66 14.16 137.18 16.248 136.82 18.432C136.46 20.592 136.28 22.14 136.28 23.076C136.28 23.988 136.376 24.444 136.568 24.444C136.712 24.444 137.24 24.216 138.152 23.76L138.584 23.544L139.232 24.804C139.016 24.996 138.728 25.236 138.368 25.524C138.032 25.812 137.384 26.208 136.424 26.712C135.464 27.192 134.6 27.432 133.832 27.432C132.344 27.432 131.48 26.76 131.24 25.416C129.704 26.76 128.312 27.432 127.064 27.432C125.84 27.432 124.796 26.952 123.932 25.992C123.092 25.032 122.672 23.52 122.672 21.456C122.672 18.24 123.332 15.708 124.652 13.86C125.972 11.988 127.568 11.052 129.44 11.052C130.784 11.052 132.08 11.4 133.328 12.096ZM129.224 24.372C129.8 24.372 130.448 24.144 131.168 23.688C131.336 20.304 131.9 16.956 132.86 13.644C132.14 13.332 131.528 13.176 131.024 13.176C130.16 13.176 129.416 14.028 128.792 15.732C128.192 17.412 127.892 19.272 127.892 21.312C127.892 23.352 128.336 24.372 129.224 24.372ZM151.164 11.484C151.116 12.084 150.912 12.78 150.552 13.572C149.64 13.476 148.776 13.428 147.96 13.428H147.312C146.208 18.78 145.656 22.116 145.656 23.436C145.656 24.132 145.8 24.48 146.088 24.48C146.4 24.48 147.204 24.18 148.5 23.58L149.148 24.768C147.012 26.544 145.032 27.432 143.208 27.432C142.368 27.432 141.672 27.168 141.12 26.64C140.592 26.112 140.328 25.416 140.328 24.552C140.328 23.664 140.424 22.668 140.616 21.564C140.832 20.46 141.12 19.116 141.48 17.532C141.84 15.924 142.104 14.628 142.272 13.644C141.384 13.716 140.724 13.788 140.292 13.86C140.244 13.572 140.22 13.188 140.22 12.708C140.22 12.204 140.256 11.796 140.328 11.484H142.596C142.788 10.188 142.884 8.964 142.884 7.812L142.848 6.696V6.588C144.72 5.94 146.484 5.616 148.14 5.616C148.236 6.096 148.284 6.696 148.284 7.416C148.284 8.136 148.08 9.492 147.672 11.484H151.164ZM150.37 20.772C150.37 17.772 151.27 15.408 153.07 13.68C154.894 11.928 156.958 11.052 159.262 11.052C160.678 11.052 161.842 11.4 162.754 12.096C163.666 12.792 164.122 13.728 164.122 14.904C164.122 16.056 163.822 17.028 163.222 17.82C162.646 18.612 161.938 19.224 161.098 19.656C159.394 20.496 157.834 21.024 156.418 21.24L155.554 21.348C155.722 23.604 156.646 24.732 158.326 24.732C158.902 24.732 159.514 24.588 160.162 24.3C160.81 24.012 161.314 23.724 161.674 23.436L162.214 23.004L163.078 24.156C162.886 24.42 162.502 24.768 161.926 25.2C161.35 25.632 160.81 25.992 160.306 26.28C158.914 27.048 157.39 27.432 155.734 27.432C154.078 27.432 152.77 26.844 151.81 25.668C150.85 24.492 150.37 22.86 150.37 20.772ZM155.518 19.584C156.742 19.368 157.714 18.852 158.434 18.036C159.154 17.22 159.514 16.164 159.514 14.868C159.514 13.572 159.13 12.924 158.362 12.924C157.45 12.924 156.742 13.704 156.238 15.264C155.758 16.8 155.518 18.24 155.518 19.584Z" fill="white"/>
</svg>
