<svg width="165" height="27" viewBox="0 0 165 27" fill="none" xmlns="http://www.w3.org/2000/svg">
<path d="M10.052 26.932C8.66 26.932 7.22 26.704 5.732 26.248C4.484 26.56 3.392 26.716 2.456 26.716C1.544 26.716 0.92 26.692 0.584 26.644C0.752 25.228 1.472 21.64 2.744 15.88C4.04 10.096 4.688 6.82 4.688 6.052C4.688 5.26 4.52 4.576 4.184 4C3.872 3.424 3.56 3.004 3.248 2.74L2.744 2.344L2.852 1.804C3.476 1.636 4.748 1.456 6.668 1.264C8.612 1.048 10.304 0.939999 11.744 0.939999C15.08 0.939999 17.6 1.684 19.304 3.172C21.032 4.636 21.896 7.024 21.896 10.336C21.896 13.048 21.44 15.652 20.528 18.148C19.64 20.62 18.272 22.708 16.424 24.412C14.576 26.092 12.452 26.932 10.052 26.932ZM12.608 3.208C11.984 3.208 11.276 3.28 10.484 3.424C10.244 5.968 9.56 9.688 8.432 14.584C7.328 19.456 6.68 22.564 6.488 23.908C7.064 24.196 7.856 24.34 8.864 24.34C9.872 24.34 10.82 23.944 11.708 23.152C12.62 22.336 13.352 21.328 13.904 20.128C14.456 18.928 14.936 17.584 15.344 16.096C16.04 13.432 16.388 11.008 16.388 8.824C16.388 6.64 16.1 5.164 15.524 4.396C14.948 3.604 13.976 3.208 12.608 3.208ZM22.9985 20.272C22.9985 17.272 23.8985 14.908 25.6985 13.18C27.5225 11.428 29.5865 10.552 31.8905 10.552C33.3065 10.552 34.4705 10.9 35.3825 11.596C36.2945 12.292 36.7505 13.228 36.7505 14.404C36.7505 15.556 36.4505 16.528 35.8505 17.32C35.2745 18.112 34.5665 18.724 33.7265 19.156C32.0225 19.996 30.4625 20.524 29.0465 20.74L28.1825 20.848C28.3505 23.104 29.2745 24.232 30.9545 24.232C31.5305 24.232 32.1425 24.088 32.7905 23.8C33.4385 23.512 33.9425 23.224 34.3025 22.936L34.8425 22.504L35.7065 23.656C35.5145 23.92 35.1305 24.268 34.5545 24.7C33.9785 25.132 33.4385 25.492 32.9345 25.78C31.5425 26.548 30.0185 26.932 28.3625 26.932C26.7065 26.932 25.3985 26.344 24.4385 25.168C23.4785 23.992 22.9985 22.36 22.9985 20.272ZM28.1465 19.084C29.3705 18.868 30.3425 18.352 31.0625 17.536C31.7825 16.72 32.1425 15.664 32.1425 14.368C32.1425 13.072 31.7585 12.424 30.9905 12.424C30.0785 12.424 29.3705 13.204 28.8665 14.764C28.3865 16.3 28.1465 17.74 28.1465 19.084ZM37.3774 20.272C37.3774 17.272 38.2774 14.908 40.0774 13.18C41.9014 11.428 43.9654 10.552 46.2694 10.552C47.6854 10.552 48.8494 10.9 49.7614 11.596C50.6734 12.292 51.1294 13.228 51.1294 14.404C51.1294 15.556 50.8294 16.528 50.2294 17.32C49.6534 18.112 48.9454 18.724 48.1054 19.156C46.4014 19.996 44.8414 20.524 43.4254 20.74L42.5614 20.848C42.7294 23.104 43.6534 24.232 45.3334 24.232C45.9094 24.232 46.5214 24.088 47.1694 23.8C47.8174 23.512 48.3214 23.224 48.6814 22.936L49.2214 22.504L50.0854 23.656C49.8934 23.92 49.5094 24.268 48.9334 24.7C48.3574 25.132 47.8174 25.492 47.3134 25.78C45.9214 26.548 44.3974 26.932 42.7414 26.932C41.0854 26.932 39.7774 26.344 38.8174 25.168C37.8574 23.992 37.3774 22.36 37.3774 20.272ZM42.5254 19.084C43.7494 18.868 44.7214 18.352 45.4414 17.536C46.1614 16.72 46.5214 15.664 46.5214 14.368C46.5214 13.072 46.1374 12.424 45.3694 12.424C44.4574 12.424 43.7494 13.204 43.2454 14.764C42.7654 16.3 42.5254 17.74 42.5254 19.084ZM59.5683 3.352C59.5683 5.56 58.2483 8.164 55.6083 11.164L53.9163 10.12C55.1643 8.2 55.8603 6.736 56.0043 5.728L53.8803 4.432C53.8803 3.592 54.0723 2.764 54.4563 1.948C54.8643 1.132 55.2723 0.495999 55.6803 0.0399995C57.0243 0.0399995 58.0923 0.399999 58.8843 1.12C59.3403 1.528 59.5683 2.272 59.5683 3.352ZM71.7782 21.784C71.7782 23.296 71.1062 24.532 69.7622 25.492C68.4422 26.452 66.9302 26.932 65.2262 26.932C63.5222 26.932 62.1662 26.572 61.1582 25.852C60.1742 25.132 59.6822 24.496 59.6822 23.944C59.6822 23.608 60.1022 23.068 60.9422 22.324C61.7822 21.556 62.4902 21.088 63.0662 20.92C64.2662 21.808 65.2502 23.212 66.0182 25.132C66.9062 25.06 67.3502 24.64 67.3502 23.872C67.3502 22.768 66.3782 21.208 64.4342 19.192C62.4902 17.152 61.5182 15.532 61.5182 14.332C61.5182 13.132 62.0582 12.208 63.1382 11.56C64.2182 10.888 65.5142 10.552 67.0262 10.552C68.5622 10.552 69.7142 10.828 70.4822 11.38C71.2502 11.908 71.6342 12.64 71.6342 13.576C71.6342 14.488 70.9022 15.76 69.4382 17.392C69.6062 17.56 69.8222 17.788 70.0862 18.076C70.3502 18.34 70.6982 18.856 71.1302 19.624C71.5622 20.392 71.7782 21.112 71.7782 21.784ZM68.3222 16.132C69.3302 15.268 69.8342 14.416 69.8342 13.576C69.8342 12.736 69.2582 12.316 68.1062 12.316C67.5542 12.316 67.0982 12.436 66.7382 12.676C66.3782 12.892 66.1982 13.144 66.1982 13.432C66.1982 13.96 66.7262 14.704 67.7822 15.664L68.3222 16.132ZM88.5421 26.932C86.8621 26.932 85.2541 26.452 83.7181 25.492C82.9501 25.012 82.3141 24.34 81.8101 23.476C81.3301 22.612 81.0901 21.616 81.0901 20.488C81.0901 18.352 81.7981 16.612 83.2141 15.268C84.6301 13.924 86.3341 13.144 88.3261 12.928C86.9821 12.568 85.9021 11.944 85.0861 11.056C84.2941 10.168 83.8981 9.04 83.8981 7.672C83.8981 5.608 84.7021 3.976 86.3101 2.776C87.9421 1.552 89.8021 0.939999 91.8901 0.939999C93.9781 0.939999 95.7181 1.384 97.1101 2.272C98.5021 3.16 99.1981 4.36 99.1981 5.872C99.1981 6.4 99.1021 6.916 98.9101 7.42C98.7421 7.924 98.5621 8.284 98.3701 8.5L98.1181 8.86C97.3501 8.86 96.4981 8.728 95.5621 8.464C94.6501 8.2 93.9781 7.864 93.5461 7.456L93.9781 3.748C93.6181 3.388 93.0061 3.208 92.1421 3.208C91.3021 3.208 90.6301 3.652 90.1261 4.54C89.6461 5.404 89.4061 6.4 89.4061 7.528C89.4061 8.656 89.5381 9.508 89.8021 10.084C90.0661 10.66 90.4381 11.104 90.9181 11.416C91.6621 11.896 92.5381 12.232 93.5461 12.424L93.2581 14.404C91.5301 14.404 90.0301 14.92 88.7581 15.952C87.4861 16.96 86.8501 18.304 86.8501 19.984C86.8501 21.04 87.1861 21.916 87.8581 22.612C88.5541 23.284 89.4421 23.62 90.5221 23.62C92.4901 23.62 94.5061 22.624 96.5701 20.632L98.0101 21.964C95.2261 25.276 92.0701 26.932 88.5421 26.932ZM110.309 21.784C110.309 23.296 109.637 24.532 108.293 25.492C106.973 26.452 105.461 26.932 103.757 26.932C102.053 26.932 100.697 26.572 99.6895 25.852C98.7055 25.132 98.2135 24.496 98.2135 23.944C98.2135 23.608 98.6335 23.068 99.4735 22.324C100.313 21.556 101.021 21.088 101.597 20.92C102.797 21.808 103.781 23.212 104.549 25.132C105.437 25.06 105.881 24.64 105.881 23.872C105.881 22.768 104.909 21.208 102.965 19.192C101.021 17.152 100.049 15.532 100.049 14.332C100.049 13.132 100.589 12.208 101.669 11.56C102.749 10.888 104.045 10.552 105.557 10.552C107.093 10.552 108.245 10.828 109.013 11.38C109.781 11.908 110.165 12.64 110.165 13.576C110.165 14.488 109.433 15.76 107.969 17.392C108.137 17.56 108.353 17.788 108.617 18.076C108.881 18.34 109.229 18.856 109.661 19.624C110.093 20.392 110.309 21.112 110.309 21.784ZM106.853 16.132C107.861 15.268 108.365 14.416 108.365 13.576C108.365 12.736 107.789 12.316 106.637 12.316C106.085 12.316 105.629 12.436 105.269 12.676C104.909 12.892 104.729 13.144 104.729 13.432C104.729 13.96 105.257 14.704 106.313 15.664L106.853 16.132ZM123.25 10.984C123.202 11.584 122.998 12.28 122.638 13.072C121.726 12.976 120.862 12.928 120.046 12.928H119.398C118.294 18.28 117.742 21.616 117.742 22.936C117.742 23.632 117.886 23.98 118.174 23.98C118.486 23.98 119.29 23.68 120.586 23.08L121.234 24.268C119.098 26.044 117.118 26.932 115.294 26.932C114.454 26.932 113.758 26.668 113.206 26.14C112.678 25.612 112.414 24.916 112.414 24.052C112.414 23.164 112.51 22.168 112.702 21.064C112.918 19.96 113.206 18.616 113.566 17.032C113.926 15.424 114.19 14.128 114.358 13.144C113.47 13.216 112.81 13.288 112.378 13.36C112.33 13.072 112.306 12.688 112.306 12.208C112.306 11.704 112.342 11.296 112.414 10.984H114.682C114.874 9.688 114.97 8.464 114.97 7.312L114.934 6.196V6.088C116.806 5.44 118.57 5.116 120.226 5.116C120.322 5.596 120.37 6.196 120.37 6.916C120.37 7.636 120.166 8.992 119.758 10.984H123.25ZM133.328 11.596C133.376 11.548 133.508 11.236 133.724 10.66C134.852 10.66 136.364 10.996 138.26 11.668C137.66 13.66 137.18 15.748 136.82 17.932C136.46 20.092 136.28 21.64 136.28 22.576C136.28 23.488 136.376 23.944 136.568 23.944C136.712 23.944 137.24 23.716 138.152 23.26L138.584 23.044L139.232 24.304C139.016 24.496 138.728 24.736 138.368 25.024C138.032 25.312 137.384 25.708 136.424 26.212C135.464 26.692 134.6 26.932 133.832 26.932C132.344 26.932 131.48 26.26 131.24 24.916C129.704 26.26 128.312 26.932 127.064 26.932C125.84 26.932 124.796 26.452 123.932 25.492C123.092 24.532 122.672 23.02 122.672 20.956C122.672 17.74 123.332 15.208 124.652 13.36C125.972 11.488 127.568 10.552 129.44 10.552C130.784 10.552 132.08 10.9 133.328 11.596ZM129.224 23.872C129.8 23.872 130.448 23.644 131.168 23.188C131.336 19.804 131.9 16.456 132.86 13.144C132.14 12.832 131.528 12.676 131.024 12.676C130.16 12.676 129.416 13.528 128.792 15.232C128.192 16.912 127.892 18.772 127.892 20.812C127.892 22.852 128.336 23.872 129.224 23.872ZM151.164 10.984C151.116 11.584 150.912 12.28 150.552 13.072C149.64 12.976 148.776 12.928 147.96 12.928H147.312C146.208 18.28 145.656 21.616 145.656 22.936C145.656 23.632 145.8 23.98 146.088 23.98C146.4 23.98 147.204 23.68 148.5 23.08L149.148 24.268C147.012 26.044 145.032 26.932 143.208 26.932C142.368 26.932 141.672 26.668 141.12 26.14C140.592 25.612 140.328 24.916 140.328 24.052C140.328 23.164 140.424 22.168 140.616 21.064C140.832 19.96 141.12 18.616 141.48 17.032C141.84 15.424 142.104 14.128 142.272 13.144C141.384 13.216 140.724 13.288 140.292 13.36C140.244 13.072 140.22 12.688 140.22 12.208C140.22 11.704 140.256 11.296 140.328 10.984H142.596C142.788 9.688 142.884 8.464 142.884 7.312L142.848 6.196V6.088C144.72 5.44 146.484 5.116 148.14 5.116C148.236 5.596 148.284 6.196 148.284 6.916C148.284 7.636 148.08 8.992 147.672 10.984H151.164ZM150.37 20.272C150.37 17.272 151.27 14.908 153.07 13.18C154.894 11.428 156.958 10.552 159.262 10.552C160.678 10.552 161.842 10.9 162.754 11.596C163.666 12.292 164.122 13.228 164.122 14.404C164.122 15.556 163.822 16.528 163.222 17.32C162.646 18.112 161.938 18.724 161.098 19.156C159.394 19.996 157.834 20.524 156.418 20.74L155.554 20.848C155.722 23.104 156.646 24.232 158.326 24.232C158.902 24.232 159.514 24.088 160.162 23.8C160.81 23.512 161.314 23.224 161.674 22.936L162.214 22.504L163.078 23.656C162.886 23.92 162.502 24.268 161.926 24.7C161.35 25.132 160.81 25.492 160.306 25.78C158.914 26.548 157.39 26.932 155.734 26.932C154.078 26.932 152.77 26.344 151.81 25.168C150.85 23.992 150.37 22.36 150.37 20.272ZM155.518 19.084C156.742 18.868 157.714 18.352 158.434 17.536C159.154 16.72 159.514 15.664 159.514 14.368C159.514 13.072 159.13 12.424 158.362 12.424C157.45 12.424 156.742 13.204 156.238 14.764C155.758 16.3 155.518 17.74 155.518 19.084Z" fill="black"/>
</svg>
